<svg xmlns="http://www.w3.org/2000/svg" width="1920" height="1080"><path d="M6,1305L-431,1314L913,1476Z" fill="#768bb9" stroke="#768bb9" stroke-width="1.51"/><path d="M754,-384L1532,-248L1726,-271Z" fill="#9ec1e1" stroke="#9ec1e1" stroke-width="1.51"/><path d="M754,-384L1726,-271L2165,-314Z" fill="#99b7dc" stroke="#99b7dc" stroke-width="1.51"/><path d="M2125,1310L1674,1369L2179,1338Z" fill="#0a4b93" stroke="#0a4b93" stroke-width="1.51"/><path d="M1674,1369L1167,1478L2179,1338Z" fill="#165598" stroke="#165598" stroke-width="1.51"/><path d="M2152,678L2161,986L2242,1183Z" fill="#1d5c9e" stroke="#1d5c9e" stroke-width="1.51"/><path d="M2218,16L2008,143L2288,361Z" fill="#6b87b7" stroke="#6b87b7" stroke-width="1.51"/><path d="M2152,678L2242,1183L2288,361Z" fill="#2e68a2" stroke="#2e68a2" stroke-width="1.51"/><path d="M2218,16L2288,361L2366,113Z" fill="#6881ae" stroke="#6881ae" stroke-width="1.51"/><path d="M2165,-314L2218,16L2366,113Z" fill="#788ab6" stroke="#788ab6" stroke-width="1.51"/><path d="M2288,361L2242,1183L2366,113Z" fill="#3f6fa4" stroke="#3f6fa4" stroke-width="1.51"/><path d="M2152,678L2020,882L2161,986Z" fill="#2667a8" stroke="#2667a8" stroke-width="1.51"/><path d="M2165,-314L2024,-58L2218,16Z" fill="#7f92bf" stroke="#7f92bf" stroke-width="1.51"/><path d="M2014,475L2152,678L2288,361Z" fill="#4779b0" stroke="#4779b0" stroke-width="1.51"/><path d="M2008,143L2014,475L2288,361Z" fill="#5e85b8" stroke="#5e85b8" stroke-width="1.51"/><path d="M1961,-170L2024,-58L2165,-314Z" fill="#8499c7" stroke="#8499c7" stroke-width="1.51"/><path d="M2161,986L1909,1190L2242,1183Z" fill="#11559c" stroke="#11559c" stroke-width="1.51"/><path d="M1909,1190L2125,1310L2242,1183Z" fill="#0a4e97" stroke="#0a4e97" stroke-width="1.51"/><path d="M2125,1310L2179,1338L2242,1183Z" fill="#09468d" stroke="#09468d" stroke-width="1.51"/><path d="M1305,1405L1167,1478L1674,1369Z" fill="#27619d" stroke="#27619d" stroke-width="1.51"/><path d="M2014,475L1980,596L2152,678Z" fill="#407ab5" stroke="#407ab5" stroke-width="1.51"/><path d="M2024,-58L2008,143L2218,16Z" fill="#7890c1" stroke="#7890c1" stroke-width="1.51"/><path d="M1726,-271L1961,-170L2165,-314Z" fill="#8ba0cd" stroke="#8ba0cd" stroke-width="1.51"/><path d="M2020,882L1909,1190L2161,986Z" fill="#1660a7" stroke="#1660a7" stroke-width="1.51"/><path d="M1980,596L2020,882L2152,678Z" fill="#3272b0" stroke="#3272b0" stroke-width="1.51"/><path d="M1909,1190L1674,1369L2125,1310Z" fill="#0e539b" stroke="#0e539b" stroke-width="1.51"/><path d="M2008,143L1818,388L2014,475Z" fill="#608cc0" stroke="#608cc0" stroke-width="1.51"/><path d="M1824,54L1818,388L2008,143Z" fill="#6f95c6" stroke="#6f95c6" stroke-width="1.51"/><path d="M1884,630L1670,781L2020,882Z" fill="#3179b7" stroke="#3179b7" stroke-width="1.51"/><path d="M1760,1136L1909,1190L2020,882Z" fill="#1862aa" stroke="#1862aa" stroke-width="1.51"/><path d="M1656,888L1760,1136L2020,882Z" fill="#216db1" stroke="#216db1" stroke-width="1.51"/><path d="M1980,596L1884,630L2020,882Z" fill="#3678b5" stroke="#3678b5" stroke-width="1.51"/><path d="M1824,54L2008,143L2024,-58Z" fill="#7a97c8" stroke="#7a97c8" stroke-width="1.51"/><path d="M1961,-170L1824,54L2024,-58Z" fill="#819bca" stroke="#819bca" stroke-width="1.51"/><path d="M1670,781L1656,888L2020,882Z" fill="#2c76b7" stroke="#2c76b7" stroke-width="1.51"/><path d="M1884,630L1980,596L2014,475Z" fill="#447fba" stroke="#447fba" stroke-width="1.51"/><path d="M1818,388L1884,630L2014,475Z" fill="#4d86be" stroke="#4d86be" stroke-width="1.51"/><path d="M1710,110L1818,388L1824,54Z" fill="#739acb" stroke="#739acb" stroke-width="1.51"/><path d="M1726,-271L1824,54L1961,-170Z" fill="#86a2d0" stroke="#86a2d0" stroke-width="1.51"/><path d="M1760,1136L1674,1369L1909,1190Z" fill="#145ca5" stroke="#145ca5" stroke-width="1.51"/><path d="M1726,-271L1593,11L1824,54Z" fill="#86a6d3" stroke="#86a6d3" stroke-width="1.51"/><path d="M1818,388L1474,533L1884,630Z" fill="#4d8dc4" stroke="#4d8dc4" stroke-width="1.51"/><path d="M1474,533L1670,781L1884,630Z" fill="#4188c2" stroke="#4188c2" stroke-width="1.51"/><path d="M382,1312L6,1305L913,1476Z" fill="#6985b5" stroke="#6985b5" stroke-width="1.51"/><path d="M754,-384L998,-210L1532,-248Z" fill="#a7cae6" stroke="#a7cae6" stroke-width="1.51"/><path d="M1474,533L1465,638L1670,781Z" fill="#468fc5" stroke="#468fc5" stroke-width="1.51"/><path d="M1710,110L1431,268L1818,388Z" fill="#6f9fcd" stroke="#6f9fcd" stroke-width="1.51"/><path d="M1593,11L1710,110L1824,54Z" fill="#7fa2d1" stroke="#7fa2d1" stroke-width="1.51"/><path d="M1431,268L1474,533L1818,388Z" fill="#619bcb" stroke="#619bcb" stroke-width="1.51"/><path d="M-282,-312L6,-306L388,-368Z" fill="#e2edf9" stroke="#e2edf9" stroke-width="1.51"/><path d="M1532,-248L1593,11L1726,-271Z" fill="#8eaed7" stroke="#8eaed7" stroke-width="1.51"/><path d="M1656,888L1459,1091L1760,1136Z" fill="#2371b4" stroke="#2371b4" stroke-width="1.51"/><path d="M1463,1250L1674,1369L1760,1136Z" fill="#1962a9" stroke="#1962a9" stroke-width="1.51"/><path d="M1459,1091L1463,1250L1760,1136Z" fill="#226caf" stroke="#226caf" stroke-width="1.51"/><path d="M998,-210L1422,-184L1532,-248Z" fill="#9abfe0" stroke="#9abfe0" stroke-width="1.51"/><path d="M1593,11L1431,268L1710,110Z" fill="#7da7d2" stroke="#7da7d2" stroke-width="1.51"/><path d="M1463,1250L1305,1405L1674,1369Z" fill="#2262a3" stroke="#2262a3" stroke-width="1.51"/><path d="M1532,-248L1422,-184L1593,11Z" fill="#8fb2d9" stroke="#8fb2d9" stroke-width="1.51"/><path d="M1380,699L1656,888L1670,781Z" fill="#3785c0" stroke="#3785c0" stroke-width="1.51"/><path d="M1465,638L1380,699L1670,781Z" fill="#418dc4" stroke="#418dc4" stroke-width="1.51"/><path d="M1357,145L1431,268L1593,11Z" fill="#7facd5" stroke="#7facd5" stroke-width="1.51"/><path d="M1380,699L1459,1091L1656,888Z" fill="#3380bd" stroke="#3380bd" stroke-width="1.51"/><path d="M1380,699L1243,796L1459,1091Z" fill="#3b89c2" stroke="#3b89c2" stroke-width="1.51"/><path d="M1422,-184L1399,-153L1593,11Z" fill="#8fb4da" stroke="#8fb4da" stroke-width="1.51"/><path d="M1399,-153L1357,145L1593,11Z" fill="#8ab1d8" stroke="#8ab1d8" stroke-width="1.51"/><path d="M1431,268L1333,330L1474,533Z" fill="#69a4d0" stroke="#69a4d0" stroke-width="1.51"/><path d="M1243,796L1179,1058L1459,1091Z" fill="#3784bf" stroke="#3784bf" stroke-width="1.51"/><path d="M1459,1091L1292,1180L1463,1250Z" fill="#2a72b3" stroke="#2a72b3" stroke-width="1.51"/><path d="M1380,699L1465,638L1474,533Z" fill="#4c95c8" stroke="#4c95c8" stroke-width="1.51"/><path d="M1333,330L1380,699L1474,533Z" fill="#589dcd" stroke="#589dcd" stroke-width="1.51"/><path d="M1179,1058L1292,1180L1459,1091Z" fill="#317ab8" stroke="#317ab8" stroke-width="1.51"/><path d="M1292,1180L1305,1405L1463,1250Z" fill="#2a6cac" stroke="#2a6cac" stroke-width="1.51"/><path d="M1060,336L998,701L1380,699Z" fill="#5ea4d1" stroke="#5ea4d1" stroke-width="1.51"/><path d="M1333,330L1060,336L1380,699Z" fill="#66a7d1" stroke="#66a7d1" stroke-width="1.51"/><path d="M967,-24L1357,145L1399,-153Z" fill="#92bbde" stroke="#92bbde" stroke-width="1.51"/><path d="M998,-210L1399,-153L1422,-184Z" fill="#9ac0e0" stroke="#9ac0e0" stroke-width="1.51"/><path d="M1357,145L1333,330L1431,268Z" fill="#78acd4" stroke="#78acd4" stroke-width="1.51"/><path d="M998,701L1243,796L1380,699Z" fill="#4d98ca" stroke="#4d98ca" stroke-width="1.51"/><path d="M998,-210L967,-24L1399,-153Z" fill="#9ec4e3" stroke="#9ec4e3" stroke-width="1.51"/><path d="M948,71L1062,297L1357,145Z" fill="#8abadc" stroke="#8abadc" stroke-width="1.51"/><path d="M967,-24L948,71L1357,145Z" fill="#95bfe0" stroke="#95bfe0" stroke-width="1.51"/><path d="M1062,297L1333,330L1357,145Z" fill="#7cb2d7" stroke="#7cb2d7" stroke-width="1.51"/><path d="M1075,941L1179,1058L1243,796Z" fill="#438dc4" stroke="#438dc4" stroke-width="1.51"/><path d="M1292,1180L1167,1478L1305,1405Z" fill="#2f6ba7" stroke="#2f6ba7" stroke-width="1.51"/><path d="M1062,297L1060,336L1333,330Z" fill="#7bb3d7" stroke="#7bb3d7" stroke-width="1.51"/><path d="M1179,1058L1167,1478L1292,1180Z" fill="#3475b4" stroke="#3475b4" stroke-width="1.51"/><path d="M913,1476L1167,1478L1179,1058Z" fill="#3b72ac" stroke="#3b72ac" stroke-width="1.51"/><path d="M828,1045L913,1476L1179,1058Z" fill="#4681bb" stroke="#4681bb" stroke-width="1.51"/><path d="M998,701L1075,941L1243,796Z" fill="#4d97c9" stroke="#4d97c9" stroke-width="1.51"/><path d="M818,566L998,701L1060,336Z" fill="#6caed6" stroke="#6caed6" stroke-width="1.51"/><path d="M998,701L956,859L1075,941Z" fill="#529acb" stroke="#529acb" stroke-width="1.51"/><path d="M1075,941L828,1045L1179,1058Z" fill="#478cc4" stroke="#478cc4" stroke-width="1.51"/><path d="M828,1045L707,1217L913,1476Z" fill="#5283bb" stroke="#5283bb" stroke-width="1.51"/><path d="M785,500L818,566L1060,336Z" fill="#79b5d9" stroke="#79b5d9" stroke-width="1.51"/><path d="M956,859L828,1045L1075,941Z" fill="#4f94c8" stroke="#4f94c8" stroke-width="1.51"/><path d="M948,71L607,213L1062,297Z" fill="#96c3e1" stroke="#96c3e1" stroke-width="1.51"/><path d="M607,213L785,500L1062,297Z" fill="#8dbfdd" stroke="#8dbfdd" stroke-width="1.51"/><path d="M785,500L1060,336L1062,297Z" fill="#7db7da" stroke="#7db7da" stroke-width="1.51"/><path d="M565,1300L382,1312L913,1476Z" fill="#5d81b1" stroke="#5d81b1" stroke-width="1.51"/><path d="M818,566L956,859L998,701Z" fill="#61a5d1" stroke="#61a5d1" stroke-width="1.51"/><path d="M802,-23L967,-24L998,-210Z" fill="#a6cbe6" stroke="#a6cbe6" stroke-width="1.51"/><path d="M754,-384L802,-23L998,-210Z" fill="#b1d2e9" stroke="#b1d2e9" stroke-width="1.51"/><path d="M802,-23L607,213L948,71Z" fill="#a5cbe4" stroke="#a5cbe4" stroke-width="1.51"/><path d="M818,566L669,875L956,859Z" fill="#65a6d1" stroke="#65a6d1" stroke-width="1.51"/><path d="M802,-23L948,71L967,-24Z" fill="#a2c8e5" stroke="#a2c8e5" stroke-width="1.51"/><path d="M669,875L828,1045L956,859Z" fill="#5d9acb" stroke="#5d9acb" stroke-width="1.51"/><path d="M607,213L575,338L785,500Z" fill="#96c5df" stroke="#96c5df" stroke-width="1.51"/><path d="M754,-384L570,-224L802,-23Z" fill="#bad8eb" stroke="#bad8eb" stroke-width="1.51"/><path d="M707,1217L565,1300L913,1476Z" fill="#5680b3" stroke="#5680b3" stroke-width="1.51"/><path d="M534,21L607,213L802,-23Z" fill="#b0d1e7" stroke="#b0d1e7" stroke-width="1.51"/><path d="M567,590L669,875L818,566Z" fill="#76b1d6" stroke="#76b1d6" stroke-width="1.51"/><path d="M669,875L707,1217L828,1045Z" fill="#5e95c7" stroke="#5e95c7" stroke-width="1.51"/><path d="M669,875L463,1036L707,1217Z" fill="#6899c9" stroke="#6899c9" stroke-width="1.51"/><path d="M785,500L567,590L818,566Z" fill="#7cb7d9" stroke="#7cb7d9" stroke-width="1.51"/><path d="M570,-224L534,21L802,-23Z" fill="#b8d6ea" stroke="#b8d6ea" stroke-width="1.51"/><path d="M575,338L567,590L785,500Z" fill="#8abedd" stroke="#8abedd" stroke-width="1.51"/><path d="M224,1278L6,1305L382,1312Z" fill="#778fc0" stroke="#778fc0" stroke-width="1.51"/><path d="M388,-368L570,-224L754,-384Z" fill="#c9e1ef" stroke="#c9e1ef" stroke-width="1.51"/><path d="M463,1036L565,1300L707,1217Z" fill="#6690c2" stroke="#6690c2" stroke-width="1.51"/><path d="M567,590L304,842L669,875Z" fill="#7bb0d6" stroke="#7bb0d6" stroke-width="1.51"/><path d="M304,842L463,1036L669,875Z" fill="#76a6d1" stroke="#76a6d1" stroke-width="1.51"/><path d="M463,1036L382,1312L565,1300Z" fill="#6c90c2" stroke="#6c90c2" stroke-width="1.51"/><path d="M284,636L304,842L567,590Z" fill="#88b8db" stroke="#88b8db" stroke-width="1.51"/><path d="M447,32L534,21L570,-224Z" fill="#bed9ec" stroke="#bed9ec" stroke-width="1.51"/><path d="M462,358L567,590L575,338Z" fill="#95c4e0" stroke="#95c4e0" stroke-width="1.51"/><path d="M534,21L447,32L607,213Z" fill="#b5d4e9" stroke="#b5d4e9" stroke-width="1.51"/><path d="M447,32L434,250L607,213Z" fill="#b1d1e7" stroke="#b1d1e7" stroke-width="1.51"/><path d="M434,250L575,338L607,213Z" fill="#a6cde3" stroke="#a6cde3" stroke-width="1.51"/><path d="M462,358L284,636L567,590Z" fill="#92c0e0" stroke="#92c0e0" stroke-width="1.51"/><path d="M218,-129L447,32L570,-224Z" fill="#c6ddef" stroke="#c6ddef" stroke-width="1.51"/><path d="M434,250L462,358L575,338Z" fill="#a4cce3" stroke="#a4cce3" stroke-width="1.51"/><path d="M388,-368L218,-129L570,-224Z" fill="#cfe2f2" stroke="#cfe2f2" stroke-width="1.51"/><path d="M235,482L284,636L462,358Z" fill="#9bc6e2" stroke="#9bc6e2" stroke-width="1.51"/><path d="M284,636L252,800L304,842Z" fill="#8ab6db" stroke="#8ab6db" stroke-width="1.51"/><path d="M6,-306L139,-266L388,-368Z" fill="#dde9f7" stroke="#dde9f7" stroke-width="1.51"/><path d="M142,74L434,250L447,32Z" fill="#bdd7ec" stroke="#bdd7ec" stroke-width="1.51"/><path d="M304,842L221,1014L463,1036Z" fill="#7da5d2" stroke="#7da5d2" stroke-width="1.51"/><path d="M224,1278L382,1312L463,1036Z" fill="#7393c5" stroke="#7393c5" stroke-width="1.51"/><path d="M221,1014L224,1278L463,1036Z" fill="#7a9ccc" stroke="#7a9ccc" stroke-width="1.51"/><path d="M434,250L235,482L462,358Z" fill="#a5cce4" stroke="#a5cce4" stroke-width="1.51"/><path d="M218,-129L142,74L447,32Z" fill="#c9ddf0" stroke="#c9ddf0" stroke-width="1.51"/><path d="M139,-266L218,-129L388,-368Z" fill="#d7e6f5" stroke="#d7e6f5" stroke-width="1.51"/><path d="M142,74L235,482L434,250Z" fill="#b4d4e8" stroke="#b4d4e8" stroke-width="1.51"/><path d="M142,74L-99,277L235,482Z" fill="#bad7eb" stroke="#bad7eb" stroke-width="1.51"/><path d="M-99,277L-98,325L235,482Z" fill="#b5d4e9" stroke="#b5d4e9" stroke-width="1.51"/><path d="M207,678L252,800L284,636Z" fill="#90badd" stroke="#90badd" stroke-width="1.51"/><path d="M252,800L221,1014L304,842Z" fill="#85add7" stroke="#85add7" stroke-width="1.51"/><path d="M235,482L207,678L284,636Z" fill="#97c1e1" stroke="#97c1e1" stroke-width="1.51"/><path d="M221,1014L6,1305L224,1278Z" fill="#7d98c9" stroke="#7d98c9" stroke-width="1.51"/><path d="M-19,916L221,1014L252,800Z" fill="#88aed7" stroke="#88aed7" stroke-width="1.51"/><path d="M207,678L-19,916L252,800Z" fill="#8db7db" stroke="#8db7db" stroke-width="1.51"/><path d="M-19,916L6,1305L221,1014Z" fill="#84a3d1" stroke="#84a3d1" stroke-width="1.51"/><path d="M-164,576L207,678L235,482Z" fill="#9ec5e3" stroke="#9ec5e3" stroke-width="1.51"/><path d="M-98,325L-164,576L235,482Z" fill="#accfe8" stroke="#accfe8" stroke-width="1.51"/><path d="M-55,49L142,74L218,-129Z" fill="#cfe1f2" stroke="#cfe1f2" stroke-width="1.51"/><path d="M139,-266L-55,49L218,-129Z" fill="#d5e5f4" stroke="#d5e5f4" stroke-width="1.51"/><path d="M6,-306L-55,49L139,-266Z" fill="#dae8f6" stroke="#dae8f6" stroke-width="1.51"/><path d="M-164,576L-19,916L207,678Z" fill="#97bee0" stroke="#97bee0" stroke-width="1.51"/><path d="M-19,916L-191,1186L6,1305Z" fill="#87a2cf" stroke="#87a2cf" stroke-width="1.51"/><path d="M-55,49L-99,277L142,74Z" fill="#cadef0" stroke="#cadef0" stroke-width="1.51"/><path d="M-164,576L-436,786L-19,916Z" fill="#9dc1e0" stroke="#9dc1e0" stroke-width="1.51"/><path d="M-282,-312L-55,49L6,-306Z" fill="#e0ecf7" stroke="#e0ecf7" stroke-width="1.51"/><path d="M-191,1186L-431,1314L6,1305Z" fill="#889ac8" stroke="#889ac8" stroke-width="1.51"/><path d="M-282,-312L-416,-5L-55,49Z" fill="#e0ecf7" stroke="#e0ecf7" stroke-width="1.51"/><path d="M-436,786L-383,1057L-19,916Z" fill="#98b6dc" stroke="#98b6dc" stroke-width="1.51"/><path d="M-383,1057L-191,1186L-19,916Z" fill="#8fabd5" stroke="#8fabd5" stroke-width="1.51"/><path d="M-244,559L-436,786L-164,576Z" fill="#a8cae5" stroke="#a8cae5" stroke-width="1.51"/><path d="M-301,434L-164,576L-98,325Z" fill="#b4d4e9" stroke="#b4d4e9" stroke-width="1.51"/><path d="M-430,200L-99,277L-55,49Z" fill="#cde1f1" stroke="#cde1f1" stroke-width="1.51"/><path d="M-416,-5L-430,200L-55,49Z" fill="#d8e7f5" stroke="#d8e7f5" stroke-width="1.51"/><path d="M-301,434L-244,559L-164,576Z" fill="#aed0e9" stroke="#aed0e9" stroke-width="1.51"/><path d="M-99,277L-301,434L-98,325Z" fill="#bdd9ec" stroke="#bdd9ec" stroke-width="1.51"/><path d="M-430,200L-301,434L-99,277Z" fill="#c5deee" stroke="#c5deee" stroke-width="1.51"/><path d="M-383,1057L-431,1314L-191,1186Z" fill="#8fa3cf" stroke="#8fa3cf" stroke-width="1.51"/><path d="M-301,434L-436,786L-244,559Z" fill="#accee7" stroke="#accee7" stroke-width="1.51"/><path d="M-430,200L-436,786L-301,434Z" fill="#b9d7ec" stroke="#b9d7ec" stroke-width="1.51"/><path d="M-436,786L-431,1314L-383,1057Z" fill="#97afd7" stroke="#97afd7" stroke-width="1.51"/></svg>
