 <svg xmlns="http://www.w3.org/2000/svg" width="1920" height="1080"><path d="M13,-371L686,-351L912,-353Z" fill="#cde3f0" stroke="#cde3f0" stroke-width="1.51"/><path d="M13,-371L912,-353L1486,-365Z" fill="#bdd9ec" stroke="#bdd9ec" stroke-width="1.51"/><path d="M1239,1406L366,1472L1617,1466Z" fill="#396aa0" stroke="#396aa0" stroke-width="1.51"/><path d="M1486,-365L1875,-266L2048,-293Z" fill="#91a8d2" stroke="#91a8d2" stroke-width="1.51"/><path d="M2010,633L2124,793L2180,465Z" fill="#3a72ad" stroke="#3a72ad" stroke-width="1.51"/><path d="M1486,-365L2048,-293L2227,-320Z" fill="#8fa2ce" stroke="#8fa2ce" stroke-width="1.51"/><path d="M2176,-180L2127,31L2251,342Z" fill="#7287b6" stroke="#7287b6" stroke-width="1.51"/><path d="M2227,-320L2176,-180L2251,342Z" fill="#7889b5" stroke="#7889b5" stroke-width="1.51"/><path d="M1941,1214L2176,1461L2261,1117Z" fill="#094990" stroke="#094990" stroke-width="1.51"/><path d="M2227,-320L2251,342L2313,1025Z" fill="#577aa8" stroke="#577aa8" stroke-width="1.51"/><path d="M2033,953L2261,1117L2313,1025Z" fill="#165497" stroke="#165497" stroke-width="1.51"/><path d="M2124,793L2033,953L2313,1025Z" fill="#1f5e9f" stroke="#1f5e9f" stroke-width="1.51"/><path d="M2251,342L2180,465L2313,1025Z" fill="#3a6ca3" stroke="#3a6ca3" stroke-width="1.51"/><path d="M2180,465L2124,793L2313,1025Z" fill="#2c66a1" stroke="#2c66a1" stroke-width="1.51"/><path d="M2261,1117L2176,1461L2313,1025Z" fill="#0c478b" stroke="#0c478b" stroke-width="1.51"/><path d="M2050,-81L2127,31L2176,-180Z" fill="#7c90bd" stroke="#7c90bd" stroke-width="1.51"/><path d="M1941,1214L2081,1477L2176,1461Z" fill="#094388" stroke="#094388" stroke-width="1.51"/><path d="M2127,31L2048,42L2251,342Z" fill="#6d87b7" stroke="#6d87b7" stroke-width="1.51"/><path d="M2048,42L2010,423L2251,342Z" fill="#6385b7" stroke="#6385b7" stroke-width="1.51"/><path d="M2033,953L1941,1214L2261,1117Z" fill="#13579d" stroke="#13579d" stroke-width="1.51"/><path d="M2010,423L2180,465L2251,342Z" fill="#527caf" stroke="#527caf" stroke-width="1.51"/><path d="M2048,-293L2176,-180L2227,-320Z" fill="#8594be" stroke="#8594be" stroke-width="1.51"/><path d="M2010,423L2010,633L2180,465Z" fill="#487bb4" stroke="#487bb4" stroke-width="1.51"/><path d="M2048,-293L2050,-81L2176,-180Z" fill="#8294c1" stroke="#8294c1" stroke-width="1.51"/><path d="M1765,101L2010,423L2048,42Z" fill="#6e91c3" stroke="#6e91c3" stroke-width="1.51"/><path d="M1951,841L2033,953L2124,793Z" fill="#2568aa" stroke="#2568aa" stroke-width="1.51"/><path d="M2010,633L1951,841L2124,793Z" fill="#2e70ae" stroke="#2e70ae" stroke-width="1.51"/><path d="M2050,-81L2048,42L2127,31Z" fill="#7990c0" stroke="#7990c0" stroke-width="1.51"/><path d="M2048,-293L1875,-266L2050,-81Z" fill="#879bca" stroke="#879bca" stroke-width="1.51"/><path d="M1941,1214L1728,1313L2081,1477Z" fill="#0c4e95" stroke="#0c4e95" stroke-width="1.51"/><path d="M1728,1313L1617,1466L2081,1477Z" fill="#114d90" stroke="#114d90" stroke-width="1.51"/><path d="M1863,630L1951,841L2010,633Z" fill="#3677b5" stroke="#3677b5" stroke-width="1.51"/><path d="M1863,630L2010,633L2010,423Z" fill="#447eb9" stroke="#447eb9" stroke-width="1.51"/><path d="M1765,101L1703,401L2010,423Z" fill="#6593c4" stroke="#6593c4" stroke-width="1.51"/><path d="M1795,902L1941,1214L2033,953Z" fill="#1863aa" stroke="#1863aa" stroke-width="1.51"/><path d="M1875,-266L1723,-105L2050,-81Z" fill="#869ecc" stroke="#869ecc" stroke-width="1.51"/><path d="M1765,101L2048,42L2050,-81Z" fill="#7b96c7" stroke="#7b96c7" stroke-width="1.51"/><path d="M1723,-105L1765,101L2050,-81Z" fill="#809dcc" stroke="#809dcc" stroke-width="1.51"/><path d="M13,-371L490,-328L686,-351Z" fill="#d5e6f3" stroke="#d5e6f3" stroke-width="1.51"/><path d="M1795,902L1721,1147L1941,1214Z" fill="#1963aa" stroke="#1963aa" stroke-width="1.51"/><path d="M1951,841L1795,902L2033,953Z" fill="#246bae" stroke="#246bae" stroke-width="1.51"/><path d="M1703,401L1863,630L2010,423Z" fill="#4f87bf" stroke="#4f87bf" stroke-width="1.51"/><path d="M1281,1402L1239,1406L1617,1466Z" fill="#26609c" stroke="#26609c" stroke-width="1.51"/><path d="M1863,630L1772,680L1951,841Z" fill="#357ab7" stroke="#357ab7" stroke-width="1.51"/><path d="M1772,680L1795,902L1951,841Z" fill="#2d76b5" stroke="#2d76b5" stroke-width="1.51"/><path d="M1721,1147L1728,1313L1941,1214Z" fill="#135ba4" stroke="#135ba4" stroke-width="1.51"/><path d="M1639,340L1703,401L1765,101Z" fill="#6a9aca" stroke="#6a9aca" stroke-width="1.51"/><path d="M1692,117L1639,340L1765,101Z" fill="#739dcd" stroke="#739dcd" stroke-width="1.51"/><path d="M1703,401L1645,652L1772,680Z" fill="#4789c1" stroke="#4789c1" stroke-width="1.51"/><path d="M1703,401L1772,680L1863,630Z" fill="#4686bf" stroke="#4686bf" stroke-width="1.51"/><path d="M1486,-365L1723,-105L1875,-266Z" fill="#8fabd6" stroke="#8fabd6" stroke-width="1.51"/><path d="M868,1333L366,1472L1239,1406Z" fill="#4d77aa" stroke="#4d77aa" stroke-width="1.51"/><path d="M1486,-365L1538,-134L1723,-105Z" fill="#90b0d8" stroke="#90b0d8" stroke-width="1.51"/><path d="M1723,-105L1692,117L1765,101Z" fill="#7fa1d0" stroke="#7fa1d0" stroke-width="1.51"/><path d="M1575,1021L1721,1147L1795,902Z" fill="#1f6db2" stroke="#1f6db2" stroke-width="1.51"/><path d="M1772,680L1645,652L1795,902Z" fill="#357fbb" stroke="#357fbb" stroke-width="1.51"/><path d="M1645,652L1575,1021L1795,902Z" fill="#2d7aba" stroke="#2d7aba" stroke-width="1.51"/><path d="M1721,1147L1610,1221L1728,1313Z" fill="#1760a8" stroke="#1760a8" stroke-width="1.51"/><path d="M1521,451L1645,652L1703,401Z" fill="#5192c7" stroke="#5192c7" stroke-width="1.51"/><path d="M1377,769L1575,1021L1645,652Z" fill="#3684bf" stroke="#3684bf" stroke-width="1.51"/><path d="M1538,-134L1692,117L1723,-105Z" fill="#85a7d4" stroke="#85a7d4" stroke-width="1.51"/><path d="M1610,1221L1617,1466L1728,1313Z" fill="#175a9f" stroke="#175a9f" stroke-width="1.51"/><path d="M1575,1021L1610,1221L1721,1147Z" fill="#1d69af" stroke="#1d69af" stroke-width="1.51"/><path d="M1423,130L1639,340L1692,117Z" fill="#76a3d0" stroke="#76a3d0" stroke-width="1.51"/><path d="M1538,-134L1423,130L1692,117Z" fill="#84aad5" stroke="#84aad5" stroke-width="1.51"/><path d="M1639,340L1521,451L1703,401Z" fill="#5f98ca" stroke="#5f98ca" stroke-width="1.51"/><path d="M912,-353L1241,-261L1486,-365Z" fill="#a5c6e3" stroke="#a5c6e3" stroke-width="1.51"/><path d="M1377,769L1424,1002L1575,1021Z" fill="#327fbd" stroke="#327fbd" stroke-width="1.51"/><path d="M1610,1221L1334,1214L1617,1466Z" fill="#2063a6" stroke="#2063a6" stroke-width="1.51"/><path d="M1334,1214L1281,1402L1617,1466Z" fill="#2563a2" stroke="#2563a2" stroke-width="1.51"/><path d="M1423,130L1386,343L1639,340Z" fill="#72a5d0" stroke="#72a5d0" stroke-width="1.51"/><path d="M1521,451L1357,564L1645,652Z" fill="#4f95c9" stroke="#4f95c9" stroke-width="1.51"/><path d="M1357,564L1377,769L1645,652Z" fill="#4790c6" stroke="#4790c6" stroke-width="1.51"/><path d="M1386,343L1521,451L1639,340Z" fill="#659ecd" stroke="#659ecd" stroke-width="1.51"/><path d="M1486,-365L1411,-195L1538,-134Z" fill="#95b6db" stroke="#95b6db" stroke-width="1.51"/><path d="M1575,1021L1424,1002L1610,1221Z" fill="#2571b4" stroke="#2571b4" stroke-width="1.51"/><path d="M1424,1002L1334,1214L1610,1221Z" fill="#2771b2" stroke="#2771b2" stroke-width="1.51"/><path d="M1241,-261L1382,-296L1486,-365Z" fill="#9dbee0" stroke="#9dbee0" stroke-width="1.51"/><path d="M502,1394L366,1472L868,1333Z" fill="#6080af" stroke="#6080af" stroke-width="1.51"/><path d="M1382,-296L1411,-195L1486,-365Z" fill="#9abbde" stroke="#9abbde" stroke-width="1.51"/><path d="M1411,-195L1423,130L1538,-134Z" fill="#8db2d9" stroke="#8db2d9" stroke-width="1.51"/><path d="M1386,343L1357,564L1521,451Z" fill="#5f9fcd" stroke="#5f9fcd" stroke-width="1.51"/><path d="M1411,-195L1158,-28L1423,130Z" fill="#8fb8dc" stroke="#8fb8dc" stroke-width="1.51"/><path d="M1377,769L1255,927L1424,1002Z" fill="#3987c0" stroke="#3987c0" stroke-width="1.51"/><path d="M1255,927L1139,1112L1334,1214Z" fill="#367fbb" stroke="#367fbb" stroke-width="1.51"/><path d="M1200,375L1357,564L1386,343Z" fill="#65a6d0" stroke="#65a6d0" stroke-width="1.51"/><path d="M1151,130L1200,375L1386,343Z" fill="#79b1d6" stroke="#79b1d6" stroke-width="1.51"/><path d="M1241,-261L1158,-28L1411,-195Z" fill="#98bfdf" stroke="#98bfdf" stroke-width="1.51"/><path d="M1151,130L1386,343L1423,130Z" fill="#7eb0d6" stroke="#7eb0d6" stroke-width="1.51"/><path d="M1158,-28L1151,130L1423,130Z" fill="#8cb8dc" stroke="#8cb8dc" stroke-width="1.51"/><path d="M1255,927L1334,1214L1424,1002Z" fill="#317dba" stroke="#317dba" stroke-width="1.51"/><path d="M1382,-296L1241,-261L1411,-195Z" fill="#9bbedf" stroke="#9bbedf" stroke-width="1.51"/><path d="M1357,564L1121,799L1377,769Z" fill="#4a96c9" stroke="#4a96c9" stroke-width="1.51"/><path d="M1041,642L1121,799L1357,564Z" fill="#559dcd" stroke="#559dcd" stroke-width="1.51"/><path d="M1121,799L1255,927L1377,769Z" fill="#4290c5" stroke="#4290c5" stroke-width="1.51"/><path d="M1239,1406L1281,1402L1334,1214Z" fill="#2c6aa8" stroke="#2c6aa8" stroke-width="1.51"/><path d="M1121,468L1041,642L1357,564Z" fill="#5ea4d0" stroke="#5ea4d0" stroke-width="1.51"/><path d="M1200,375L1121,468L1357,564Z" fill="#65a7d2" stroke="#65a7d2" stroke-width="1.51"/><path d="M674,1334L502,1394L868,1333Z" fill="#5a80b2" stroke="#5a80b2" stroke-width="1.51"/><path d="M1139,1112L1239,1406L1334,1214Z" fill="#3274b2" stroke="#3274b2" stroke-width="1.51"/><path d="M1139,1112L985,1198L1239,1406Z" fill="#3b78b5" stroke="#3b78b5" stroke-width="1.51"/><path d="M1151,130L1054,369L1200,375Z" fill="#7eb5d8" stroke="#7eb5d8" stroke-width="1.51"/><path d="M1121,799L1139,1112L1255,927Z" fill="#418bc3" stroke="#418bc3" stroke-width="1.51"/><path d="M1121,799L960,868L1139,1112Z" fill="#4991c6" stroke="#4991c6" stroke-width="1.51"/><path d="M912,-353L973,-2L1158,-28Z" fill="#a3c8e5" stroke="#a3c8e5" stroke-width="1.51"/><path d="M985,1198L868,1333L1239,1406Z" fill="#3f76b0" stroke="#3f76b0" stroke-width="1.51"/><path d="M912,-353L1158,-28L1241,-261Z" fill="#a3c7e4" stroke="#a3c7e4" stroke-width="1.51"/><path d="M1041,642L1018,689L1121,799Z" fill="#58a0cd" stroke="#58a0cd" stroke-width="1.51"/><path d="M1054,369L1121,468L1200,375Z" fill="#72afd5" stroke="#72afd5" stroke-width="1.51"/><path d="M960,868L985,1198L1139,1112Z" fill="#4689c1" stroke="#4689c1" stroke-width="1.51"/><path d="M891,149L1054,369L1151,130Z" fill="#8abcdd" stroke="#8abcdd" stroke-width="1.51"/><path d="M973,-2L1151,130L1158,-28Z" fill="#96c0e0" stroke="#96c0e0" stroke-width="1.51"/><path d="M973,-2L891,149L1151,130Z" fill="#97c1e1" stroke="#97c1e1" stroke-width="1.51"/><path d="M1054,369L1041,642L1121,468Z" fill="#6bacd5" stroke="#6bacd5" stroke-width="1.51"/><path d="M1018,689L960,868L1121,799Z" fill="#539ccc" stroke="#539ccc" stroke-width="1.51"/><path d="M912,-353L710,-74L973,-2Z" fill="#accfe8" stroke="#accfe8" stroke-width="1.51"/><path d="M960,868L786,1133L985,1198Z" fill="#4f8dc3" stroke="#4f8dc3" stroke-width="1.51"/><path d="M658,596L710,688L1041,642Z" fill="#70aed5" stroke="#70aed5" stroke-width="1.51"/><path d="M659,429L658,596L1041,642Z" fill="#78b4d9" stroke="#78b4d9" stroke-width="1.51"/><path d="M659,429L1041,642L1054,369Z" fill="#76b3d8" stroke="#76b3d8" stroke-width="1.51"/><path d="M891,149L659,429L1054,369Z" fill="#8bbfdd" stroke="#8bbfdd" stroke-width="1.51"/><path d="M710,688L1018,689L1041,642Z" fill="#63a7d2" stroke="#63a7d2" stroke-width="1.51"/><path d="M710,688L960,868L1018,689Z" fill="#5fa4d0" stroke="#5fa4d0" stroke-width="1.51"/><path d="M703,951L786,1133L960,868Z" fill="#5a97c9" stroke="#5a97c9" stroke-width="1.51"/><path d="M786,1133L868,1333L985,1198Z" fill="#4d83bc" stroke="#4d83bc" stroke-width="1.51"/><path d="M710,-74L891,149L973,-2Z" fill="#a4cae5" stroke="#a4cae5" stroke-width="1.51"/><path d="M710,-74L681,59L891,149Z" fill="#aacde6" stroke="#aacde6" stroke-width="1.51"/><path d="M686,-351L710,-74L912,-353Z" fill="#bad7eb" stroke="#bad7eb" stroke-width="1.51"/><path d="M710,688L703,951L960,868Z" fill="#64a3cf" stroke="#64a3cf" stroke-width="1.51"/><path d="M681,59L541,282L891,149Z" fill="#a4cbe3" stroke="#a4cbe3" stroke-width="1.51"/><path d="M541,282L659,429L891,149Z" fill="#9ac7e0" stroke="#9ac7e0" stroke-width="1.51"/><path d="M786,1133L674,1334L868,1333Z" fill="#5583ba" stroke="#5583ba" stroke-width="1.51"/><path d="M553,147L541,282L681,59Z" fill="#accfe5" stroke="#accfe5" stroke-width="1.51"/><path d="M703,951L578,1066L786,1133Z" fill="#6297c8" stroke="#6297c8" stroke-width="1.51"/><path d="M578,1066L674,1334L786,1133Z" fill="#608dc1" stroke="#608dc1" stroke-width="1.51"/><path d="M-92,1303L-309,1308L366,1472Z" fill="#7e90bc" stroke="#7e90bc" stroke-width="1.51"/><path d="M431,765L452,888L512,671Z" fill="#7eb1d7" stroke="#7eb1d7" stroke-width="1.51"/><path d="M543,461L658,596L659,429Z" fill="#8abedd" stroke="#8abedd" stroke-width="1.51"/><path d="M490,-328L587,-49L686,-351Z" fill="#c4deee" stroke="#c4deee" stroke-width="1.51"/><path d="M658,596L512,671L710,688Z" fill="#7db5d8" stroke="#7db5d8" stroke-width="1.51"/><path d="M452,888L703,951L710,688Z" fill="#71a9d1" stroke="#71a9d1" stroke-width="1.51"/><path d="M512,671L452,888L710,688Z" fill="#7ab1d6" stroke="#7ab1d6" stroke-width="1.51"/><path d="M686,-351L587,-49L710,-74Z" fill="#bbd8eb" stroke="#bbd8eb" stroke-width="1.51"/><path d="M587,-49L681,59L710,-74Z" fill="#b4d4e9" stroke="#b4d4e9" stroke-width="1.51"/><path d="M578,1066L502,1394L674,1334Z" fill="#648bbd" stroke="#648bbd" stroke-width="1.51"/><path d="M452,888L578,1066L703,951Z" fill="#6ea0ce" stroke="#6ea0ce" stroke-width="1.51"/><path d="M587,-49L553,147L681,59Z" fill="#b4d4e8" stroke="#b4d4e8" stroke-width="1.51"/><path d="M541,282L543,461L659,429Z" fill="#98c6e0" stroke="#98c6e0" stroke-width="1.51"/><path d="M47,1321L-92,1303L366,1472Z" fill="#798dba" stroke="#798dba" stroke-width="1.51"/><path d="M543,461L512,671L658,596Z" fill="#86bbdc" stroke="#86bbdc" stroke-width="1.51"/><path d="M375,627L512,671L543,461Z" fill="#8cbcdd" stroke="#8cbcdd" stroke-width="1.51"/><path d="M232,1234L502,1394L578,1066Z" fill="#6f90c3" stroke="#6f90c3" stroke-width="1.51"/><path d="M337,981L232,1234L578,1066Z" fill="#769ccc" stroke="#769ccc" stroke-width="1.51"/><path d="M452,888L337,981L578,1066Z" fill="#75a3d0" stroke="#75a3d0" stroke-width="1.51"/><path d="M490,-328L364,-239L587,-49Z" fill="#c8dfef" stroke="#c8dfef" stroke-width="1.51"/><path d="M409,114L553,147L587,-49Z" fill="#b8d5ea" stroke="#b8d5ea" stroke-width="1.51"/><path d="M364,-239L409,114L587,-49Z" fill="#c3daed" stroke="#c3daed" stroke-width="1.51"/><path d="M541,282L432,262L543,461Z" fill="#a2cbe3" stroke="#a2cbe3" stroke-width="1.51"/><path d="M432,262L541,282L553,147Z" fill="#abcfe5" stroke="#abcfe5" stroke-width="1.51"/><path d="M13,-371L364,-239L490,-328Z" fill="#d9e7f6" stroke="#d9e7f6" stroke-width="1.51"/><path d="M409,114L432,262L553,147Z" fill="#b2d3e8" stroke="#b2d3e8" stroke-width="1.51"/><path d="M364,-239L246,-192L409,114Z" fill="#ccdff0" stroke="#ccdff0" stroke-width="1.51"/><path d="M432,262L375,627L543,461Z" fill="#9ac5e1" stroke="#9ac5e1" stroke-width="1.51"/><path d="M232,1234L366,1472L502,1394Z" fill="#6e87b6" stroke="#6e87b6" stroke-width="1.51"/><path d="M375,627L431,765L512,671Z" fill="#86b7da" stroke="#86b7da" stroke-width="1.51"/><path d="M83,414L375,627L432,262Z" fill="#a4cae4" stroke="#a4cae4" stroke-width="1.51"/><path d="M217,1045L232,1234L337,981Z" fill="#7e9fce" stroke="#7e9fce" stroke-width="1.51"/><path d="M246,-192L129,77L409,114Z" fill="#cadef0" stroke="#cadef0" stroke-width="1.51"/><path d="M431,765L337,981L452,888Z" fill="#7eabd5" stroke="#7eabd5" stroke-width="1.51"/><path d="M13,-371L246,-192L364,-239Z" fill="#dae8f6" stroke="#dae8f6" stroke-width="1.51"/><path d="M140,830L337,981L431,765Z" fill="#85afd7" stroke="#85afd7" stroke-width="1.51"/><path d="M409,114L129,77L432,262Z" fill="#bdd7eb" stroke="#bdd7eb" stroke-width="1.51"/><path d="M129,77L83,414L432,262Z" fill="#b9d6ea" stroke="#b9d6ea" stroke-width="1.51"/><path d="M375,627L140,830L431,765Z" fill="#8bb7db" stroke="#8bb7db" stroke-width="1.51"/><path d="M232,1234L47,1321L366,1472Z" fill="#768dbb" stroke="#768dbb" stroke-width="1.51"/><path d="M83,414L58,439L375,627Z" fill="#a3c9e5" stroke="#a3c9e5" stroke-width="1.51"/><path d="M-20,589L140,830L375,627Z" fill="#95bedf" stroke="#95bedf" stroke-width="1.51"/><path d="M58,439L-20,589L375,627Z" fill="#9fc7e4" stroke="#9fc7e4" stroke-width="1.51"/><path d="M81,12L129,77L246,-192Z" fill="#d0e1f2" stroke="#d0e1f2" stroke-width="1.51"/><path d="M140,830L217,1045L337,981Z" fill="#84a9d5" stroke="#84a9d5" stroke-width="1.51"/><path d="M217,1045L79,1251L232,1234Z" fill="#7e9aca" stroke="#7e9aca" stroke-width="1.51"/><path d="M79,1251L47,1321L232,1234Z" fill="#7d94c5" stroke="#7d94c5" stroke-width="1.51"/><path d="M13,-371L47,-224L246,-192Z" fill="#ddeaf7" stroke="#ddeaf7" stroke-width="1.51"/><path d="M47,-224L81,12L246,-192Z" fill="#d6e5f5" stroke="#d6e5f5" stroke-width="1.51"/><path d="M140,830L-2,1059L217,1045Z" fill="#87aad5" stroke="#87aad5" stroke-width="1.51"/><path d="M-2,1059L79,1251L217,1045Z" fill="#83a0cf" stroke="#83a0cf" stroke-width="1.51"/><path d="M-2,1059L-7,1190L79,1251Z" fill="#849ecd" stroke="#849ecd" stroke-width="1.51"/><path d="M47,-224L-24,15L81,12Z" fill="#d6e5f5" stroke="#d6e5f5" stroke-width="1.51"/><path d="M-139,334L83,414L129,77Z" fill="#bed9ec" stroke="#bed9ec" stroke-width="1.51"/><path d="M-24,15L-139,334L129,77Z" fill="#cadff0" stroke="#cadff0" stroke-width="1.51"/><path d="M-97,832L-2,1059L140,830Z" fill="#8fb2d9" stroke="#8fb2d9" stroke-width="1.51"/><path d="M-20,589L-97,832L140,830Z" fill="#96bedf" stroke="#96bedf" stroke-width="1.51"/><path d="M81,12L-24,15L129,77Z" fill="#cfe1f2" stroke="#cfe1f2" stroke-width="1.51"/><path d="M-121,-6L-24,15L47,-224Z" fill="#d8e7f5" stroke="#d8e7f5" stroke-width="1.51"/><path d="M-139,334L58,439L83,414Z" fill="#b3d3e9" stroke="#b3d3e9" stroke-width="1.51"/><path d="M-7,1190L47,1321L79,1251Z" fill="#8197c8" stroke="#8197c8" stroke-width="1.51"/><path d="M-121,-6L-139,334L-24,15Z" fill="#cfe2f2" stroke="#cfe2f2" stroke-width="1.51"/><path d="M-7,1190L-92,1303L47,1321Z" fill="#8297c6" stroke="#8297c6" stroke-width="1.51"/><path d="M-139,334L-20,589L58,439Z" fill="#afd1e8" stroke="#afd1e8" stroke-width="1.51"/><path d="M13,-371L-373,-365L47,-224Z" fill="#e8f1fa" stroke="#e8f1fa" stroke-width="1.51"/><path d="M-373,-365L-121,-6L47,-224Z" fill="#e3eef9" stroke="#e3eef9" stroke-width="1.51"/><path d="M-307,105L-139,334L-121,-6Z" fill="#d0e3f2" stroke="#d0e3f2" stroke-width="1.51"/><path d="M-139,334L-259,573L-20,589Z" fill="#afd1e9" stroke="#afd1e9" stroke-width="1.51"/><path d="M-97,832L-218,848L-2,1059Z" fill="#93b4da" stroke="#93b4da" stroke-width="1.51"/><path d="M-218,848L-268,1072L-2,1059Z" fill="#91b0d8" stroke="#91b0d8" stroke-width="1.51"/><path d="M-259,573L-97,832L-20,589Z" fill="#a2c6e3" stroke="#a2c6e3" stroke-width="1.51"/><path d="M-268,1072L-7,1190L-2,1059Z" fill="#8aa5d2" stroke="#8aa5d2" stroke-width="1.51"/><path d="M-268,1072L-92,1303L-7,1190Z" fill="#89a0cd" stroke="#89a0cd" stroke-width="1.51"/><path d="M-373,-365L-400,-49L-121,-6Z" fill="#e5eff9" stroke="#e5eff9" stroke-width="1.51"/><path d="M-259,573L-218,848L-97,832Z" fill="#9ec2e1" stroke="#9ec2e1" stroke-width="1.51"/><path d="M-307,105L-271,318L-139,334Z" fill="#c9e0ef" stroke="#c9e0ef" stroke-width="1.51"/><path d="M-271,318L-259,573L-139,334Z" fill="#bad7eb" stroke="#bad7eb" stroke-width="1.51"/><path d="M-268,1072L-309,1308L-92,1303Z" fill="#8b9fcc" stroke="#8b9fcc" stroke-width="1.51"/><path d="M-332,969L-268,1072L-218,848Z" fill="#97b4db" stroke="#97b4db" stroke-width="1.51"/><path d="M-400,-49L-307,105L-121,-6Z" fill="#dde9f7" stroke="#dde9f7" stroke-width="1.51"/><path d="M-259,573L-332,969L-218,848Z" fill="#9ec1e1" stroke="#9ec1e1" stroke-width="1.51"/><path d="M-332,969L-309,1308L-268,1072Z" fill="#92a9d4" stroke="#92a9d4" stroke-width="1.51"/><path d="M-271,318L-400,-49L-259,573Z" fill="#cae1ef" stroke="#cae1ef" stroke-width="1.51"/><path d="M-400,-49L-332,969L-259,573Z" fill="#b6d5eb" stroke="#b6d5eb" stroke-width="1.51"/><path d="M-307,105L-400,-49L-271,318Z" fill="#d7e7f5" stroke="#d7e7f5" stroke-width="1.51"/></svg>
