<?xml version="1.0" standalone="no"?>
<!DOCTYPE svg PUBLIC "-//W3C//DTD SVG 20010904//EN"
 "http://www.w3.org/TR/2001/REC-SVG-20010904/DTD/svg10.dtd">
<svg version="1.0" xmlns="http://www.w3.org/2000/svg"
 width="930.000000pt" height="930.000000pt" viewBox="0 0 930.000000 930.000000"
 preserveAspectRatio="xMidYMid meet">
<metadata>
Created by potrace 1.11, written by Peter Selinger 2001-2013
</metadata>
<g transform="translate(0.000000,930.000000) scale(0.100000,-0.100000)"
fill="#000000" stroke="none">
<path d="M4437 9144 c-188 -35 -343 -99 -597 -246 -91 -52 -172 -95 -180 -95
-16 0 -33 -10 -820 -478 -622 -370 -1321 -777 -1545 -899 -224 -123 -370 -222
-482 -329 -160 -152 -259 -304 -322 -493 -69 -205 -76 -334 -52 -974 16 -450
10 -1853 -10 -2218 -9 -180 -10 -261 -1 -351 42 -425 229 -725 607 -976 61
-40 169 -105 242 -145 113 -61 152 -76 266 -105 183 -46 330 -65 506 -65 177
0 298 19 434 67 54 19 104 33 111 30 26 -10 169 120 247 224 64 87 122 214
144 314 10 44 26 110 36 147 18 63 19 125 19 1502 0 933 4 1471 10 1534 54
492 323 892 732 1085 195 92 327 112 647 97 178 -8 226 -7 233 2 4 7 20 51 35
98 25 75 28 100 28 210 0 88 -6 150 -19 209 l-19 83 -341 -5 c-383 -6 -471
-17 -671 -81 -141 -46 -343 -148 -465 -234 -123 -87 -355 -318 -443 -442 -140
-198 -268 -499 -316 -745 -40 -203 -41 -250 -41 -1897 0 -1063 -4 -1615 -10
-1640 -12 -43 -61 -88 -97 -88 -14 0 -116 20 -228 45 -198 44 -205 46 -321
111 -224 125 -362 233 -468 366 -176 220 -239 468 -216 853 19 326 25 1493 9
1927 -8 211 -13 436 -12 501 8 373 162 658 471 877 51 36 186 117 300 180 262
146 853 491 1312 765 466 278 667 395 680 395 6 0 77 39 157 86 243 142 360
193 530 230 107 23 302 23 413 0 101 -22 232 -67 315 -109 50 -25 2179 -1274
2474 -1451 51 -31 124 -78 160 -106 84 -61 224 -206 274 -283 60 -90 124 -234
151 -338 45 -170 50 -242 40 -634 -10 -385 -11 -1237 -4 -1915 5 -379 3 -422
-14 -500 -71 -323 -235 -566 -503 -743 -54 -36 -393 -238 -753 -449 -360 -212
-901 -529 -1201 -706 -597 -350 -643 -375 -771 -420 -138 -49 -228 -65 -373
-65 -145 0 -235 16 -373 65 -108 38 -167 67 -359 179 -83 49 -156 89 -163 89
-12 0 -430 244 -795 464 l-210 127 -36 -41 c-42 -48 -207 -320 -243 -400 -14
-30 -26 -68 -28 -84 -3 -29 5 -35 434 -290 628 -375 689 -411 707 -412 9 -1
94 -47 190 -102 282 -164 465 -230 701 -254 293 -29 581 46 909 237 702 409
2648 1554 2751 1618 161 100 342 267 445 412 107 150 194 357 230 545 41 211
41 3128 1 3337 -73 381 -286 700 -613 921 -63 42 -563 337 -1503 887 -327 191
-773 452 -990 580 -515 303 -579 334 -795 391 -87 23 -124 27 -285 30 -133 2
-207 -1 -263 -12z"/>
<path d="M4946 7342 c-25 -49 -43 -136 -45 -222 -2 -94 8 -158 45 -270 l24
-75 93 -1 c101 -1 296 -13 306 -18 3 -2 27 -7 52 -10 225 -30 467 -147 602
-291 71 -76 172 -248 191 -327 13 -54 19 -56 223 -53 103 2 206 6 228 9 22 3
60 8 85 11 59 7 111 16 132 21 15 4 14 12 -7 92 -26 98 -70 219 -86 239 -6 7
-9 13 -5 13 3 0 -5 18 -19 40 -14 22 -25 44 -25 49 0 16 -96 155 -160 232
-186 222 -449 383 -790 483 -224 66 -392 90 -698 100 l-132 5 -14 -27z"/>
<path d="M3857 6385 c-32 -7 -76 -20 -97 -30 -44 -20 -39 -8 -70 -190 -13 -74
-9 -283 6 -379 49 -306 206 -559 480 -776 76 -60 292 -181 381 -214 21 -7 83
-30 138 -50 153 -57 370 -120 700 -202 633 -159 855 -227 1028 -316 242 -124
382 -295 425 -518 9 -46 9 -234 0 -285 -24 -137 -115 -302 -225 -406 -143
-136 -363 -240 -608 -288 -152 -30 -205 -34 -390 -35 -210 -1 -291 7 -498 49
-68 14 -248 79 -344 125 -332 161 -518 387 -614 745 -12 44 -23 81 -24 83 -8
9 -125 17 -245 17 -139 0 -238 -8 -319 -26 -89 -19 -84 -14 -76 -83 3 -33 13
-90 22 -126 8 -36 17 -74 19 -85 26 -136 155 -416 259 -560 135 -189 319 -358
496 -457 24 -14 61 -35 81 -46 96 -55 327 -139 478 -175 64 -16 204 -41 288
-52 23 -3 59 -7 80 -10 180 -24 602 -23 752 1 102 16 232 42 281 55 429 113
767 338 997 665 59 84 168 312 187 392 3 9 14 53 24 98 57 231 48 505 -24 744
-54 180 -162 356 -310 505 -184 185 -459 343 -760 438 -66 21 -326 97 -345
102 -8 2 -70 17 -137 35 -67 17 -130 33 -140 35 -10 2 -67 16 -127 30 -60 15
-116 28 -125 30 -9 2 -79 19 -156 39 -77 20 -149 39 -159 41 -52 12 -233 70
-331 107 -193 71 -285 125 -372 216 -58 60 -124 186 -142 267 -24 110 -17 300
14 378 8 20 15 39 15 41 0 8 -148 57 -210 70 -84 17 -229 18 -303 1z"/>
</g>
</svg>
